# xmcd CD database file
#
# Track frame offsets:
#	150
#	23545
#	46560
#	65267
#	79967
#	101857
#	128802
#	147655
#	169412
#	191692
#
# Disc length: 2839 seconds
#
# Revision: 0
# Processed by: cddbd v1.5.1PL2 Copyright (c) Steve Scherf et al.
# Submitted via: CDex 1.51
#
DISCID=880b150a
DTITLE=Jon Mayer - My Romance
DYEAR=2006
DGENRE=Jazz
TTITLE0=Dream Dancing
TTITLE1=Yours Is My Heart Alone
TTITLE2=I Have Dreamed
TTITLE3=But Beautiful
TTITLE4=Be My Love
TTITLE5=I'm Gonna Laugh You Out Of My Life
TTITLE6=Yesterdays
TTITLE7=My Romance
TTITLE8=If You Never Come To Me
TTITLE9=Everything I Love
EXTD=YEAR: 2006
EXTT0=
EXTT1=
EXTT2=
EXTT3=
EXTT4=
EXTT5=
EXTT6=
EXTT7=
EXTT8=
EXTT9=
PLAYORDER=
